<svg version="1.1" id="Layer_1" xmlns="http://www.w3.org/2000/svg" xmlns:xlink="http://www.w3.org/1999/xlink" x="0px" y="0px"
	 width="100%" viewBox="0 0 2000 2000" enable-background="new 0 0 2000 2000" xml:space="preserve">
<path fill="#FFFFFF" opacity="1.000000" stroke="none" 
	d="
M963.000000,1.000000 
	C988.020935,1.000000 1013.041809,1.000000 1038.731934,1.386709 
	C1047.158691,2.181601 1054.924072,2.479498 1062.672363,3.022745 
	C1075.637817,3.931781 1088.615723,4.763109 1101.544800,6.061234 
	C1115.219604,7.434234 1128.895996,8.972434 1142.477295,11.054281 
	C1162.127686,14.066437 1181.892334,16.757030 1201.249512,21.161150 
	C1232.744751,28.326859 1264.119995,36.161053 1295.216187,44.888317 
	C1315.186157,50.493023 1334.809814,57.577965 1354.147461,65.129204 
	C1378.808716,74.759277 1403.290405,84.950455 1427.349243,95.990005 
	C1446.905762,104.963577 1465.964111,115.111259 1484.804321,125.532074 
	C1503.884888,136.085785 1522.794312,147.043198 1541.119629,158.846893 
	C1570.068115,177.493286 1598.427002,197.066803 1624.778320,219.327942 
	C1646.124634,237.360947 1667.866211,255.004562 1688.215576,274.116486 
	C1707.434082,292.166168 1725.358398,311.634216 1743.294800,330.994629 
	C1755.682861,344.366394 1767.584961,358.251740 1778.875977,372.561096 
	C1794.960205,392.944885 1810.911499,413.489624 1825.787842,434.757202 
	C1848.199097,466.796753 1868.405151,500.290314 1886.360474,535.033508 
	C1897.434204,556.460815 1907.601929,578.374695 1917.629395,600.320007 
	C1931.750366,631.223877 1943.864746,662.969055 1953.623657,695.495605 
	C1961.830811,722.849792 1969.491821,750.429138 1975.831543,778.264771 
	C1981.935913,805.067200 1986.456299,832.257629 1990.873779,859.407593 
	C1993.946777,878.293701 1996.074707,897.361511 1997.862549,916.419678 
	C1999.203857,930.718445 1999.312256,945.132080 2000.036011,959.491211 
	C2000.095703,960.673950 2000.666748,961.830994 2001.000000,963.000000 
	C2001.000000,988.020935 2001.000000,1013.041809 2000.613281,1038.731934 
	C1999.818359,1047.157837 1999.558472,1054.925903 1998.971313,1062.669189 
	C1997.740601,1078.899414 1996.537842,1095.136353 1994.944702,1111.333130 
	C1993.550659,1125.505493 1992.151733,1139.711548 1989.828979,1153.749512 
	C1986.695068,1172.689575 1983.303223,1191.631592 1978.887329,1210.304443 
	C1972.126709,1238.890503 1964.971680,1267.412109 1956.884033,1295.645996 
	C1951.214600,1315.438110 1944.373413,1334.964111 1936.864258,1354.142456 
	C1926.973999,1379.402344 1916.472778,1404.459839 1905.180054,1429.121460 
	C1896.494263,1448.089844 1886.604004,1466.547729 1876.474854,1484.802734 
	C1865.895142,1503.870117 1854.963135,1522.793335 1843.155640,1541.116089 
	C1824.503418,1570.060547 1804.921509,1598.416626 1782.667114,1624.769043 
	C1764.316284,1646.499023 1746.268066,1668.548340 1726.826904,1689.275391 
	C1709.132080,1708.140625 1690.014038,1725.709717 1671.008545,1743.293701 
	C1657.628174,1755.673218 1643.750244,1767.582886 1629.440918,1778.874023 
	C1609.057129,1794.958496 1588.512085,1810.909668 1567.244507,1825.786621 
	C1535.205200,1848.198608 1501.755005,1868.492310 1466.956177,1886.335938 
	C1443.328613,1898.451538 1419.348022,1910.037354 1394.867676,1920.289673 
	C1366.740479,1932.069458 1338.044189,1942.558594 1309.289795,1952.746704 
	C1292.483643,1958.701294 1275.224609,1963.547974 1257.912720,1967.864014 
	C1233.164673,1974.034180 1208.218140,1979.431396 1183.281372,1984.810303 
	C1173.089111,1987.008911 1162.728638,1988.498413 1152.393555,1989.944336 
	C1141.045654,1991.531738 1129.646362,1992.765259 1118.255737,1994.029419 
	C1102.777100,1995.747192 1087.308105,1997.621216 1071.791626,1998.902954 
	C1061.569458,1999.747192 1051.270142,1999.641235 1041.008301,2000.039429 
	C1039.994629,2000.078735 1039.002319,2000.666626 1038.000000,2001.000000 
	C1013.645752,2001.000000 989.291565,2001.000000 964.268066,2000.613281 
	C950.243286,1999.484375 936.879761,1998.860840 923.534424,1997.966187 
	C910.899658,1997.119385 898.224976,1996.454590 885.673950,1994.869263 
	C868.190369,1992.661133 850.755005,1989.961060 833.391846,1986.938354 
	C813.671692,1983.505371 793.902893,1980.131226 774.423401,1975.583008 
	C735.193359,1966.423096 696.378723,1955.575928 658.827759,1940.890259 
	C629.029236,1929.236328 599.471985,1916.890259 570.259888,1903.839355 
	C552.114258,1895.732666 534.579041,1886.156738 517.194031,1876.478271 
	C498.141174,1865.871338 479.213959,1854.951050 460.881683,1843.157349 
	C431.921478,1824.526855 403.591156,1804.912598 377.226898,1782.671143 
	C355.868256,1764.652832 334.136169,1746.997803 313.786621,1727.885864 
	C294.568176,1709.836182 276.643890,1690.368042 258.707581,1671.007568 
	C246.319427,1657.636108 234.417572,1643.750488 223.126419,1629.441284 
	C207.042084,1609.057495 191.090744,1588.512817 176.213943,1567.245361 
	C153.802017,1535.206177 133.508270,1501.756104 115.664673,1466.957275 
	C103.548882,1443.328979 92.540680,1419.116089 81.556091,1394.928955 
	C68.381943,1365.920410 57.139992,1336.109497 48.137932,1305.558350 
	C40.156960,1278.472412 32.432610,1251.253662 26.168949,1223.735229 
	C20.067999,1196.931763 15.543879,1169.742310 11.126251,1142.592285 
	C8.053254,1123.706299 5.942798,1104.637329 4.133386,1085.580688 
	C2.807305,1071.614380 2.687945,1057.534546 1.963772,1043.508667 
	C1.902688,1042.325684 1.333255,1041.168945 0.999996,1040.000000 
	C1.000000,1014.312439 1.000000,988.624878 1.386676,962.268127 
	C2.181551,954.175293 2.492059,946.744751 3.019544,939.329590 
	C3.941782,926.365051 4.763093,913.386414 6.061188,900.457275 
	C7.434154,886.782471 8.972297,873.106140 11.054125,859.524841 
	C14.066267,839.874451 16.756937,820.109863 21.160954,800.752563 
	C28.326540,769.257080 36.160339,737.881409 44.887589,706.785095 
	C50.492222,686.815063 57.577892,667.191956 65.129044,647.854309 
	C74.758942,623.193176 84.949280,598.711304 95.988548,574.652588 
	C104.961983,555.096008 115.109955,536.037537 125.530800,517.197266 
	C136.084534,498.116669 147.039368,479.205597 158.845993,460.882324 
	C177.496841,431.937103 197.035355,403.554138 219.322510,377.219971 
	C237.374802,355.889679 254.859634,333.986633 274.139954,313.813080 
	C295.086761,291.895874 317.581970,271.428955 339.860199,250.825104 
	C352.998810,238.673935 366.652924,227.006409 380.748901,215.982834 
	C398.354706,202.214432 416.326996,188.858765 434.724854,176.171478 
	C466.914673,153.973206 500.216827,133.463379 535.040344,115.659111 
	C558.683838,103.570847 582.884583,92.540405 607.071716,81.555710 
	C636.080078,68.381409 665.890991,57.139675 696.442139,48.137821 
	C723.528015,40.156986 750.746704,32.432503 778.265015,26.168844 
	C805.068420,20.067921 832.257935,15.543831 859.407898,11.126200 
	C878.293945,8.053220 897.361694,5.925209 916.419739,4.137442 
	C930.718567,2.796129 945.132202,2.687587 959.491333,1.963642 
	C960.674072,1.904011 961.831055,1.333263 963.000000,1.000000 
M802.429993,973.878967 
	C802.714111,973.736938 802.910156,973.516602 803.945007,973.088074 
	C879.224548,973.088074 954.504028,973.088074 1029.814209,973.088074 
	C1029.814209,929.781433 1029.814209,886.925171 1029.814209,843.923218 
	C1027.636963,843.923218 1025.813965,843.923218 1023.990906,843.923218 
	C959.662842,843.923218 895.334717,843.928894 831.006653,843.916992 
	C821.677124,843.915283 812.347534,843.829163 802.789856,843.392822 
	C802.574646,843.161194 802.309631,843.030518 801.766724,842.087585 
	C801.766724,747.149414 801.766724,652.211182 801.766724,556.832764 
	C889.383423,556.832764 976.622253,556.832764 1064.087402,556.832764 
	C1070.500366,513.552795 1076.854126,470.672028 1083.223267,427.687805 
	C931.418091,427.687805 780.323792,427.687805 629.228088,427.687805 
	C629.228088,741.130127 629.228088,1054.320435 629.228088,1367.546631 
	C686.782837,1367.546631 744.021667,1367.546631 801.741211,1367.546631 
	C801.741211,1365.332397 801.741211,1363.369995 801.741211,1361.407471 
	C801.741211,1234.261597 801.740051,1107.115723 801.751770,979.969910 
	C801.751953,977.979675 801.910339,975.989502 802.429993,973.878967 
M1373.084839,787.500000 
	C1373.084839,667.552856 1373.084839,547.605713 1373.084839,427.720215 
	C1314.770874,427.720215 1256.996094,427.720215 1198.989380,427.720215 
	C1198.989380,429.829193 1198.989380,431.654205 1198.989380,433.479218 
	C1198.989380,480.977325 1199.045044,528.475525 1198.979858,575.973572 
	C1198.671387,800.740906 1198.363281,1025.508423 1197.916992,1250.275513 
	C1197.890137,1263.827148 1197.069458,1277.411499 1195.889404,1290.916992 
	C1194.680664,1304.748657 1193.305298,1318.641479 1190.701294,1332.258667 
	C1186.103149,1356.303101 1176.280151,1378.183228 1160.432251,1397.090210 
	C1144.781006,1415.762695 1125.027588,1429.235718 1104.073730,1441.127319 
	C1097.324829,1444.957397 1090.415039,1448.503906 1083.398682,1452.276978 
	C1098.830444,1493.121826 1114.130249,1533.617554 1129.457397,1574.185425 
	C1130.443726,1573.994263 1131.123291,1573.968262 1131.719482,1573.731689 
	C1178.482056,1555.177612 1222.709473,1532.079468 1261.881104,1500.154419 
	C1291.924194,1475.668945 1318.499512,1448.137695 1336.520264,1413.242310 
	C1356.295166,1374.950073 1365.664307,1333.800903 1369.964233,1291.330322 
	C1371.623047,1274.946289 1372.845581,1258.436279 1372.872192,1241.981323 
	C1373.117676,1090.821167 1373.056641,939.660522 1373.084839,787.500000 
z"/>
<path fill="#4C6971" opacity="1.000000" stroke="none" 
	d="
M1038.468628,2001.000000 
	C1039.002319,2000.666626 1039.994629,2000.078735 1041.008301,2000.039429 
	C1051.270142,1999.641235 1061.569458,1999.747192 1071.791626,1998.902954 
	C1087.308105,1997.621216 1102.777100,1995.747192 1118.255737,1994.029419 
	C1129.646362,1992.765259 1141.045654,1991.531738 1152.393555,1989.944336 
	C1162.728638,1988.498413 1173.089111,1987.008911 1183.281372,1984.810303 
	C1208.218140,1979.431396 1233.164673,1974.034180 1257.912720,1967.864014 
	C1275.224609,1963.547974 1292.483643,1958.701294 1309.289795,1952.746704 
	C1338.044189,1942.558594 1366.740479,1932.069458 1394.867676,1920.289673 
	C1419.348022,1910.037354 1443.328613,1898.451538 1466.956177,1886.335938 
	C1501.755005,1868.492310 1535.205200,1848.198608 1567.244507,1825.786621 
	C1588.512085,1810.909668 1609.057129,1794.958496 1629.440918,1778.874023 
	C1643.750244,1767.582886 1657.628174,1755.673218 1671.008545,1743.293701 
	C1690.014038,1725.709717 1709.132080,1708.140625 1726.826904,1689.275391 
	C1746.268066,1668.548340 1764.316284,1646.499023 1782.667114,1624.769043 
	C1804.921509,1598.416626 1824.503418,1570.060547 1843.155640,1541.116089 
	C1854.963135,1522.793335 1865.895142,1503.870117 1876.474854,1484.802734 
	C1886.604004,1466.547729 1896.494263,1448.089844 1905.180054,1429.121460 
	C1916.472778,1404.459839 1926.973999,1379.402344 1936.864258,1354.142456 
	C1944.373413,1334.964111 1951.214600,1315.438110 1956.884033,1295.645996 
	C1964.971680,1267.412109 1972.126709,1238.890503 1978.887329,1210.304443 
	C1983.303223,1191.631592 1986.695068,1172.689575 1989.828979,1153.749512 
	C1992.151733,1139.711548 1993.550659,1125.505493 1994.944702,1111.333130 
	C1996.537842,1095.136353 1997.740601,1078.899414 1998.971313,1062.669189 
	C1999.558472,1054.925903 1999.818359,1047.157837 2000.613281,1039.200439 
	C2001.000000,1359.593750 2001.000000,1680.187622 2001.000000,2001.000000 
	C1680.312500,2001.000000 1359.624878,2001.000000 1038.468628,2001.000000 
z"/>
<path fill="#4C6971" opacity="1.000000" stroke="none" 
	d="
M0.999996,1040.468628 
	C1.333255,1041.168945 1.902688,1042.325684 1.963772,1043.508667 
	C2.687945,1057.534546 2.807305,1071.614380 4.133386,1085.580688 
	C5.942798,1104.637329 8.053254,1123.706299 11.126251,1142.592285 
	C15.543879,1169.742310 20.067999,1196.931763 26.168949,1223.735229 
	C32.432610,1251.253662 40.156960,1278.472412 48.137932,1305.558350 
	C57.139992,1336.109497 68.381943,1365.920410 81.556091,1394.928955 
	C92.540680,1419.116089 103.548882,1443.328979 115.664673,1466.957275 
	C133.508270,1501.756104 153.802017,1535.206177 176.213943,1567.245361 
	C191.090744,1588.512817 207.042084,1609.057495 223.126419,1629.441284 
	C234.417572,1643.750488 246.319427,1657.636108 258.707581,1671.007568 
	C276.643890,1690.368042 294.568176,1709.836182 313.786621,1727.885864 
	C334.136169,1746.997803 355.868256,1764.652832 377.226898,1782.671143 
	C403.591156,1804.912598 431.921478,1824.526855 460.881683,1843.157349 
	C479.213959,1854.951050 498.141174,1865.871338 517.194031,1876.478271 
	C534.579041,1886.156738 552.114258,1895.732666 570.259888,1903.839355 
	C599.471985,1916.890259 629.029236,1929.236328 658.827759,1940.890259 
	C696.378723,1955.575928 735.193359,1966.423096 774.423401,1975.583008 
	C793.902893,1980.131226 813.671692,1983.505371 833.391846,1986.938354 
	C850.755005,1989.961060 868.190369,1992.661133 885.673950,1994.869263 
	C898.224976,1996.454590 910.899658,1997.119385 923.534424,1997.966187 
	C936.879761,1998.860840 950.243286,1999.484375 963.799438,2000.613281 
	C643.072998,2001.000000 322.145935,2001.000000 1.000000,2001.000000 
	C1.000000,1680.979126 1.000000,1360.958130 0.999996,1040.468628 
z"/>
<path fill="#4C6971" opacity="1.000000" stroke="none" 
	d="
M2001.000000,962.531372 
	C2000.666748,961.830994 2000.095703,960.673950 2000.036011,959.491211 
	C1999.312256,945.132080 1999.203857,930.718445 1997.862549,916.419678 
	C1996.074707,897.361511 1993.946777,878.293701 1990.873779,859.407593 
	C1986.456299,832.257629 1981.935913,805.067200 1975.831543,778.264771 
	C1969.491821,750.429138 1961.830811,722.849792 1953.623657,695.495605 
	C1943.864746,662.969055 1931.750366,631.223877 1917.629395,600.320007 
	C1907.601929,578.374695 1897.434204,556.460815 1886.360474,535.033508 
	C1868.405151,500.290314 1848.199097,466.796753 1825.787842,434.757202 
	C1810.911499,413.489624 1794.960205,392.944885 1778.875977,372.561096 
	C1767.584961,358.251740 1755.682861,344.366394 1743.294800,330.994629 
	C1725.358398,311.634216 1707.434082,292.166168 1688.215576,274.116486 
	C1667.866211,255.004562 1646.124634,237.360947 1624.778320,219.327942 
	C1598.427002,197.066803 1570.068115,177.493286 1541.119629,158.846893 
	C1522.794312,147.043198 1503.884888,136.085785 1484.804321,125.532074 
	C1465.964111,115.111259 1446.905762,104.963577 1427.349243,95.990005 
	C1403.290405,84.950455 1378.808716,74.759277 1354.147461,65.129204 
	C1334.809814,57.577965 1315.186157,50.493023 1295.216187,44.888317 
	C1264.119995,36.161053 1232.744751,28.326859 1201.249512,21.161150 
	C1181.892334,16.757030 1162.127686,14.066437 1142.477295,11.054281 
	C1128.895996,8.972434 1115.219604,7.434234 1101.544800,6.061234 
	C1088.615723,4.763109 1075.637817,3.931781 1062.672363,3.022745 
	C1054.924072,2.479498 1047.158691,2.181601 1039.200439,1.386709 
	C1359.593750,1.000000 1680.187500,1.000000 2001.000000,1.000000 
	C2001.000000,321.354187 2001.000000,641.708435 2001.000000,962.531372 
z"/>
<path fill="#4C6971" opacity="1.000000" stroke="none" 
	d="
M962.531372,1.000000 
	C961.831055,1.333263 960.674072,1.904011 959.491333,1.963642 
	C945.132202,2.687587 930.718567,2.796129 916.419739,4.137442 
	C897.361694,5.925209 878.293945,8.053220 859.407898,11.126200 
	C832.257935,15.543831 805.068420,20.067921 778.265015,26.168844 
	C750.746704,32.432503 723.528015,40.156986 696.442139,48.137821 
	C665.890991,57.139675 636.080078,68.381409 607.071716,81.555710 
	C582.884583,92.540405 558.683838,103.570847 535.040344,115.659111 
	C500.216827,133.463379 466.914673,153.973206 434.724854,176.171478 
	C416.326996,188.858765 398.354706,202.214432 380.748901,215.982834 
	C366.652924,227.006409 352.998810,238.673935 339.860199,250.825104 
	C317.581970,271.428955 295.086761,291.895874 274.139954,313.813080 
	C254.859634,333.986633 237.374802,355.889679 219.322510,377.219971 
	C197.035355,403.554138 177.496841,431.937103 158.845993,460.882324 
	C147.039368,479.205597 136.084534,498.116669 125.530800,517.197266 
	C115.109955,536.037537 104.961983,555.096008 95.988548,574.652588 
	C84.949280,598.711304 74.758942,623.193176 65.129044,647.854309 
	C57.577892,667.191956 50.492222,686.815063 44.887589,706.785095 
	C36.160339,737.881409 28.326540,769.257080 21.160954,800.752563 
	C16.756937,820.109863 14.066267,839.874451 11.054125,859.524841 
	C8.972297,873.106140 7.434154,886.782471 6.061188,900.457275 
	C4.763093,913.386414 3.941782,926.365051 3.019544,939.329590 
	C2.492059,946.744751 2.181551,954.175293 1.386676,961.799438 
	C1.000000,641.739502 1.000000,321.479065 1.000000,1.000000 
	C321.354187,1.000000 641.708435,1.000000 962.531372,1.000000 
z"/>
<path fill="#000000" opacity="1.000000" stroke="none" 
	d="
M803.018005,843.782104 
	C812.347534,843.829163 821.677124,843.915283 831.006653,843.916992 
	C895.334717,843.928894 959.662842,843.923218 1023.990906,843.923218 
	C1025.813965,843.923218 1027.636963,843.923218 1029.814209,843.923218 
	C1029.814209,886.925171 1029.814209,929.781433 1029.814209,973.088074 
	C954.504028,973.088074 879.224548,973.088074 803.191284,973.082275 
	C802.289917,973.384094 802.142395,973.691711 801.994873,973.999268 
	C801.910339,975.989502 801.751953,977.979675 801.751770,979.969910 
	C801.740051,1107.115723 801.741211,1234.261597 801.741211,1361.407471 
	C801.741211,1363.369995 801.741211,1365.332397 801.741211,1367.546631 
	C744.021667,1367.546631 686.782837,1367.546631 629.228088,1367.546631 
	C629.228088,1054.320435 629.228088,741.130127 629.228088,427.687805 
	C780.323792,427.687805 931.418091,427.687805 1083.223267,427.687805 
	C1076.854126,470.672028 1070.500366,513.552795 1064.087402,556.832764 
	C976.622253,556.832764 889.383423,556.832764 801.766724,556.832764 
	C801.766724,652.211182 801.766724,747.149414 801.852295,842.841553 
	C802.297974,843.657776 802.657959,843.719910 803.018005,843.782104 
z"/>
<path fill="#000000" opacity="1.000000" stroke="none" 
	d="
M1373.084839,788.000000 
	C1373.056641,939.660522 1373.117676,1090.821167 1372.872192,1241.981323 
	C1372.845581,1258.436279 1371.623047,1274.946289 1369.964233,1291.330322 
	C1365.664307,1333.800903 1356.295166,1374.950073 1336.520264,1413.242310 
	C1318.499512,1448.137695 1291.924194,1475.668945 1261.881104,1500.154419 
	C1222.709473,1532.079468 1178.482056,1555.177612 1131.719482,1573.731689 
	C1131.123291,1573.968262 1130.443726,1573.994263 1129.457397,1574.185425 
	C1114.130249,1533.617554 1098.830444,1493.121826 1083.398682,1452.276978 
	C1090.415039,1448.503906 1097.324829,1444.957397 1104.073730,1441.127319 
	C1125.027588,1429.235718 1144.781006,1415.762695 1160.432251,1397.090210 
	C1176.280151,1378.183228 1186.103149,1356.303101 1190.701294,1332.258667 
	C1193.305298,1318.641479 1194.680664,1304.748657 1195.889404,1290.916992 
	C1197.069458,1277.411499 1197.890137,1263.827148 1197.916992,1250.275513 
	C1198.363281,1025.508423 1198.671387,800.740906 1198.979858,575.973572 
	C1199.045044,528.475525 1198.989380,480.977325 1198.989380,433.479218 
	C1198.989380,431.654205 1198.989380,429.829193 1198.989380,427.720215 
	C1256.996094,427.720215 1314.770874,427.720215 1373.084839,427.720215 
	C1373.084839,547.605713 1373.084839,667.552856 1373.084839,788.000000 
z"/>
<path fill="#DDDDDD" opacity="1.000000" stroke="none" 
	d="
M802.903931,843.587463 
	C802.657959,843.719910 802.297974,843.657776 801.966431,843.298157 
	C802.309631,843.030518 802.574646,843.161194 802.903931,843.587463 
z"/>
<path fill="#DDDDDD" opacity="1.000000" stroke="none" 
	d="
M802.212402,973.939087 
	C802.142395,973.691711 802.289917,973.384094 802.727783,973.147217 
	C802.910156,973.516602 802.714111,973.736938 802.212402,973.939087 
z"/>
</svg>